<svg xmlns="http://www.w3.org/2000/svg" xmlns:xlink="http://www.w3.org/1999/xlink" width="700" zoomAndPan="magnify" viewBox="0 0 525 225" height="300" preserveAspectRatio="xMidYMid meet" version="1.0"><defs><clipPath id="19b640afef"><path d="M 36.042969 94 L 206 94 L 206 132 L 36.042969 132 Z M 36.042969 94 " clip-rule="nonzero"/></clipPath><clipPath id="1619b9982b"><path d="M 346 55.339844 L 488.949219 55.339844 L 488.949219 169.339844 L 346 169.339844 Z M 346 55.339844 " clip-rule="nonzero"/></clipPath></defs><g clip-path="url(#19b640afef)"><path fill="#cdbfb4" d="M 36.042969 112.25 L 36.097656 113.945312 C 36.398438 118.558594 37.960938 122.144531 40.851562 124.867188 C 49.894531 133.386719 70.351562 132.105469 98.660156 130.328125 C 107.15625 129.796875 115.9375 129.246094 125.328125 128.898438 C 175.710938 127.054688 204.511719 125.625 204.796875 125.609375 L 205.503906 125.574219 L 205.503906 100.613281 L 204.796875 100.578125 C 204.511719 100.566406 175.710938 99.136719 125.328125 97.289062 C 115.9375 96.949219 107.160156 96.394531 98.664062 95.863281 C 70.351562 94.085938 49.894531 92.804688 40.851562 101.324219 C 37.960938 104.046875 36.398438 107.632812 36.097656 112.246094 L 36.042969 112.246094 Z M 204.015625 124.15625 C 199.300781 124.386719 171.296875 125.726562 125.277344 127.410156 C 115.863281 127.753906 107.070312 128.304688 98.566406 128.839844 C 71.683594 130.527344 50.445312 131.859375 41.871094 123.78125 C 39.117188 121.1875 37.699219 117.6875 37.542969 113.097656 C 37.699219 108.507812 39.117188 105.007812 41.871094 102.414062 C 50.445312 94.335938 71.683594 95.667969 98.570312 97.355469 C 107.074219 97.886719 115.863281 98.441406 125.273438 98.785156 C 171.296875 100.46875 199.300781 101.808594 204.011719 102.039062 L 204.011719 124.15625 Z M 204.015625 124.15625 " fill-opacity="1" fill-rule="nonzero"/></g><path fill="#cdbfb4" d="M 46.46875 113.097656 C 46.46875 117.328125 49.902344 120.773438 54.121094 120.773438 C 58.339844 120.773438 61.777344 117.328125 61.777344 113.097656 C 61.777344 108.863281 58.34375 105.421875 54.121094 105.421875 C 49.902344 105.421875 46.46875 108.863281 46.46875 113.097656 Z M 60.285156 113.097656 C 60.285156 116.507812 57.519531 119.28125 54.121094 119.28125 C 50.71875 119.28125 47.953125 116.507812 47.953125 113.097656 C 47.953125 109.6875 50.71875 106.914062 54.121094 106.914062 C 57.519531 106.914062 60.285156 109.6875 60.285156 113.097656 Z M 60.285156 113.097656 " fill-opacity="1" fill-rule="nonzero"/><path fill="#cdbfb4" d="M 204.402344 124.371094 C 205.15625 124.378906 280.132812 125.296875 314.640625 124.613281 C 322.726562 124.449219 329.859375 124.582031 336.152344 124.703125 C 351.144531 124.980469 361.050781 125.164062 365.519531 120.789062 C 367.332031 119.023438 368.222656 116.558594 368.242188 113.265625 C 368.230469 109.777344 367.429688 107.28125 365.683594 105.566406 C 362.035156 101.972656 355.027344 102.148438 344.417969 102.417969 C 338.78125 102.558594 332.390625 102.71875 325.09375 102.34375 C 311.773438 101.660156 206.171875 101.328125 205.105469 101.328125 L 205.101562 102.820312 C 206.167969 102.820312 311.734375 103.152344 325.015625 103.835938 C 332.371094 104.210938 338.789062 104.050781 344.457031 103.910156 C 354.320312 103.660156 361.441406 103.480469 364.640625 106.628906 C 366.085938 108.050781 366.777344 110.253906 366.753906 113.253906 C 366.734375 116.128906 365.992188 118.246094 364.480469 119.722656 C 360.453125 123.65625 350.796875 123.480469 336.179688 123.207031 C 329.875 123.089844 322.726562 122.957031 314.609375 123.117188 C 280.125 123.804688 205.171875 122.886719 204.417969 122.878906 Z M 204.402344 124.371094 " fill-opacity="1" fill-rule="nonzero"/><g clip-path="url(#1619b9982b)"><path fill="#cdbfb4" d="M 346.605469 101.277344 L 347.574219 102.410156 C 351.207031 99.285156 356.164062 94.316406 365.347656 81.136719 C 378.691406 61.988281 392.335938 60.832031 425.300781 58.027344 L 431.703125 57.480469 C 449.917969 55.898438 465.769531 55.300781 475.277344 64.042969 C 483.769531 71.851562 487.554688 86.75 487.554688 112.351562 C 487.554688 137.953125 483.769531 152.851562 475.277344 160.660156 C 465.769531 169.40625 449.914062 168.808594 431.703125 167.222656 L 425.304688 166.675781 C 392.339844 163.875 378.691406 162.71875 365.347656 143.570312 C 356.160156 130.390625 351.207031 125.417969 347.574219 122.296875 L 346.605469 123.429688 C 350.167969 126.492188 355.035156 131.382812 364.128906 144.425781 C 377.871094 164.148438 391.71875 165.324219 425.179688 168.164062 L 431.574219 168.710938 C 450.144531 170.328125 466.328125 170.917969 476.28125 161.761719 C 485.109375 153.644531 489.042969 138.40625 489.042969 112.351562 C 489.042969 86.296875 485.109375 71.058594 476.28125 62.945312 C 466.328125 53.789062 450.144531 54.378906 431.574219 55.996094 L 425.175781 56.542969 C 391.71875 59.382812 377.867188 60.558594 364.125 80.28125 C 355.039062 93.324219 350.167969 98.214844 346.605469 101.277344 Z M 346.605469 101.277344 " fill-opacity="1" fill-rule="nonzero"/></g><path fill="#cdbfb4" d="M 376.636719 154.691406 L 376.292969 70.015625 L 374.804688 70.019531 L 375.148438 154.699219 Z M 376.636719 154.691406 " fill-opacity="1" fill-rule="nonzero"/><path fill="#cdbfb4" d="M 145.015625 113.449219 C 145.015625 119.839844 156.898438 121.527344 163.183594 121.527344 C 166.25 121.527344 171.164062 121.527344 175.429688 120.59375 C 180.890625 119.398438 183.664062 116.992188 183.664062 113.449219 C 183.664062 105.808594 171.753906 104.667969 164.652344 104.667969 C 158.75 104.667969 145.015625 105.523438 145.015625 113.449219 Z M 182.171875 113.449219 C 182.171875 116.195312 179.796875 118.109375 175.109375 119.136719 C 171.003906 120.035156 166.1875 120.035156 163.308594 120.035156 C 156.734375 120.035156 146.503906 118.246094 146.503906 113.449219 C 146.503906 106.683594 160.394531 106.160156 164.652344 106.160156 C 169.921875 106.160156 182.171875 106.871094 182.171875 113.449219 Z M 182.171875 113.449219 " fill-opacity="1" fill-rule="nonzero"/><path fill="#cdbfb4" d="M 392.007812 129.921875 L 392.007812 129.929688 C 392.007812 133.125 393.945312 135.351562 396.71875 135.355469 L 454.144531 137.34375 L 458.570312 137.351562 C 459.871094 137.351562 461.082031 136.6875 461.980469 135.480469 C 462.824219 134.339844 463.292969 132.832031 463.292969 131.238281 C 463.292969 127.863281 461.179688 125.121094 458.582031 125.117188 L 396.726562 125.1875 C 395.351562 125.1875 394.242188 125.542969 393.429688 126.25 C 392.488281 127.074219 392.007812 128.308594 392.007812 129.921875 Z M 461.804688 131.230469 C 461.804688 132.511719 461.441406 133.703125 460.785156 134.589844 C 460.179688 135.40625 459.390625 135.859375 458.570312 135.859375 L 454.171875 135.855469 L 396.746094 133.863281 C 394.792969 133.863281 393.496094 132.28125 393.496094 129.933594 L 392.75 129.933594 L 393.496094 129.925781 C 393.496094 128.765625 393.804688 127.90625 394.40625 127.382812 C 394.941406 126.917969 395.722656 126.683594 396.730469 126.683594 L 458.582031 126.613281 C 460.359375 126.613281 461.804688 128.683594 461.804688 131.230469 Z M 461.804688 131.230469 " fill-opacity="1" fill-rule="nonzero"/><path fill="#cdbfb4" d="M 392.007812 147.539062 L 392.007812 147.546875 C 392.007812 150.738281 393.945312 152.96875 396.71875 152.972656 L 448.640625 155.648438 L 453.074219 155.65625 C 454.375 155.65625 455.585938 154.992188 456.484375 153.785156 C 457.332031 152.644531 457.796875 151.136719 457.796875 149.542969 C 457.796875 146.167969 455.683594 143.425781 453.085938 143.421875 L 396.734375 142.804688 C 393.730469 142.800781 392.011719 144.527344 392.007812 147.539062 Z M 456.308594 149.539062 C 456.308594 150.820312 455.945312 152.011719 455.289062 152.894531 C 454.679688 153.714844 453.894531 154.164062 453.074219 154.164062 L 448.675781 154.15625 L 396.757812 151.480469 C 394.789062 151.480469 393.496094 149.898438 393.496094 147.546875 L 392.75 147.546875 L 393.496094 147.542969 C 393.496094 145.359375 394.554688 144.296875 396.726562 144.296875 L 453.078125 144.917969 C 454.863281 144.917969 456.308594 146.992188 456.308594 149.539062 Z M 456.308594 149.539062 " fill-opacity="1" fill-rule="nonzero"/><path fill="#cdbfb4" d="M 392.007812 94.777344 L 392.007812 94.785156 C 392.007812 96.398438 392.488281 97.632812 393.429688 98.453125 C 394.242188 99.160156 395.351562 99.519531 396.730469 99.519531 L 458.582031 99.585938 C 461.179688 99.585938 463.292969 96.839844 463.292969 93.476562 C 463.292969 90.09375 461.171875 87.351562 458.570312 87.355469 L 454.171875 87.359375 L 396.695312 89.351562 C 393.945312 89.351562 392.007812 91.582031 392.007812 94.777344 Z M 461.804688 93.46875 C 461.804688 96.019531 460.359375 98.09375 458.582031 98.09375 L 396.730469 98.023438 C 395.722656 98.023438 394.941406 97.789062 394.40625 97.328125 C 393.804688 96.800781 393.496094 95.945312 393.496094 94.78125 L 392.75 94.777344 L 393.496094 94.777344 C 393.496094 92.425781 394.792969 90.84375 396.71875 90.84375 L 454.195312 88.851562 L 458.570312 88.847656 C 460.351562 88.84375 461.804688 90.917969 461.804688 93.46875 Z M 461.804688 93.46875 " fill-opacity="1" fill-rule="nonzero"/><path fill="#cdbfb4" d="M 392.007812 77.160156 L 392.007812 77.167969 C 392.007812 78.78125 392.488281 80.015625 393.429688 80.835938 C 394.242188 81.542969 395.351562 81.902344 396.730469 81.902344 L 453.09375 81.28125 C 455.6875 81.277344 457.800781 78.535156 457.800781 75.167969 C 457.796875 71.789062 455.675781 69.046875 453.074219 69.046875 L 448.675781 69.050781 L 396.683594 71.734375 C 393.945312 71.738281 392.007812 73.964844 392.007812 77.160156 Z M 456.308594 75.164062 C 456.308594 77.714844 454.863281 79.789062 453.085938 79.789062 L 396.722656 80.410156 C 395.722656 80.410156 394.941406 80.175781 394.40625 79.710938 C 393.804688 79.183594 393.496094 78.328125 393.496094 77.164062 L 392.75 77.15625 L 393.496094 77.15625 C 393.496094 74.808594 394.792969 73.226562 396.722656 73.226562 L 448.714844 70.542969 L 453.078125 70.539062 C 454.855469 70.539062 456.308594 72.613281 456.308594 75.164062 Z M 456.308594 75.164062 " fill-opacity="1" fill-rule="nonzero"/><path fill="#cdbfb4" d="M 391.984375 112.15625 L 391.988281 112.375 C 392.074219 115.570312 394.074219 117.746094 396.851562 117.671875 L 456.371094 118.019531 L 460.792969 117.898438 C 463.347656 117.828125 465.34375 115.1875 465.34375 111.882812 L 465.34375 111.65625 C 465.300781 110.066406 464.792969 108.570312 463.917969 107.453125 C 462.988281 106.269531 461.761719 105.636719 460.460938 105.675781 L 396.574219 107.507812 C 393.65625 107.589844 391.984375 109.28125 391.984375 112.15625 Z M 463.855469 111.882812 C 463.855469 114.332031 462.460938 116.363281 460.753906 116.410156 L 456.355469 116.53125 L 396.835938 116.179688 C 394.878906 116.234375 393.539062 114.6875 393.476562 112.335938 L 393.472656 112.160156 C 393.472656 110.09375 394.5 109.058594 396.613281 109.003906 L 460.5 107.167969 C 461.320312 107.144531 462.117188 107.574219 462.746094 108.375 C 463.425781 109.246094 463.820312 110.425781 463.855469 111.699219 Z M 463.855469 111.882812 " fill-opacity="1" fill-rule="nonzero"/></svg>