<svg xmlns="http://www.w3.org/2000/svg" xmlns:xlink="http://www.w3.org/1999/xlink" width="700" zoomAndPan="magnify" viewBox="0 0 525 225" height="300" preserveAspectRatio="xMidYMid meet" version="1.0"><defs><clipPath id="13c16cd517"><path d="M 43 49.914062 L 292 49.914062 L 292 175.089844 L 43 175.089844 Z M 43 49.914062 " clip-rule="nonzero"/></clipPath></defs><path fill="#cdbfb4" d="M 295.621094 109.113281 C 295.621094 99.875 292.78125 92.90625 289.011719 92.90625 C 285.246094 92.90625 282.40625 99.875 282.40625 109.113281 C 282.40625 118.351562 285.246094 125.320312 289.011719 125.320312 C 292.78125 125.320312 295.621094 118.351562 295.621094 109.113281 Z M 283.953125 109.113281 C 283.953125 100.472656 286.621094 94.453125 289.011719 94.453125 C 291.40625 94.453125 294.074219 100.472656 294.074219 109.113281 C 294.074219 117.753906 291.40625 123.773438 289.011719 123.773438 C 286.621094 123.773438 283.953125 117.753906 283.953125 109.113281 Z M 283.953125 109.113281 " fill-opacity="1" fill-rule="nonzero"/><path fill="#cdbfb4" d="M 494.910156 109.113281 C 494.910156 99.875 492.070312 92.90625 488.300781 92.90625 C 484.535156 92.90625 481.695312 99.875 481.695312 109.113281 C 481.695312 118.351562 484.535156 125.320312 488.300781 125.320312 C 492.070312 125.320312 494.910156 118.351562 494.910156 109.113281 Z M 483.238281 109.113281 C 483.238281 100.472656 485.90625 94.453125 488.300781 94.453125 C 490.695312 94.453125 493.363281 100.472656 493.363281 109.113281 C 493.363281 117.753906 490.695312 123.773438 488.300781 123.773438 C 485.90625 123.773438 483.238281 117.753906 483.238281 109.113281 Z M 483.238281 109.113281 " fill-opacity="1" fill-rule="nonzero"/><g clip-path="url(#13c16cd517)"><path fill="#cdbfb4" d="M 291.324219 96.191406 C 290.5625 96.019531 214.636719 78.585938 157.777344 59.339844 C 119.589844 46.417969 87.605469 46.6875 67.714844 60.09375 C 53.351562 69.78125 45.429688 85.773438 44.171875 107.628906 C 42.636719 134.136719 48.949219 153.1875 62.917969 164.257812 C 79.238281 177.183594 105.039062 178.550781 139.605469 168.316406 C 199.441406 150.601562 289.003906 123.558594 289.898438 123.285156 L 289.453125 121.804688 C 288.554688 122.078125 198.996094 149.121094 139.164062 166.832031 C 105.109375 176.917969 79.777344 175.640625 63.878906 163.042969 C 50.324219 152.308594 44.21875 133.695312 45.710938 107.71875 C 46.941406 86.367188 54.632812 70.777344 68.578125 61.378906 C 88.058594 48.242188 119.5625 48.039062 157.28125 60.804688 C 214.214844 80.074219 290.21875 97.527344 290.980469 97.699219 Z M 291.324219 96.191406 " fill-opacity="1" fill-rule="nonzero"/></g><path fill="#cdbfb4" d="M 290.886719 103.527344 C 289.175781 103.167969 119.085938 67.785156 80.261719 69.625 C 44.011719 71.34375 31.832031 81.390625 30.128906 110.972656 C 30.101562 111.203125 27.972656 136.8125 46.371094 153.246094 C 61.878906 167.101562 86.988281 170.558594 120.996094 163.527344 C 201.03125 146.964844 289.136719 121.378906 290.019531 121.121094 L 289.585938 119.636719 C 288.707031 119.894531 200.660156 145.464844 120.679688 162.011719 C 87.179688 168.941406 62.523438 165.605469 47.398438 152.09375 C 29.578125 136.171875 31.644531 111.335938 31.667969 111.089844 C 33.3125 82.53125 45.136719 72.839844 80.335938 71.167969 C 118.964844 69.339844 288.859375 104.683594 290.570312 105.039062 Z M 290.886719 103.527344 " fill-opacity="1" fill-rule="nonzero"/><path fill="#cdbfb4" d="M 290.6875 106.742188 C 281.925781 105.089844 75.71875 66.578125 42.964844 96.933594 C 39.585938 100.066406 38.121094 103.859375 38.605469 108.222656 C 41.605469 135.09375 95.214844 131.828125 130.691406 129.667969 L 133.332031 129.507812 C 168.148438 127.40625 288.890625 117.109375 290.105469 117.007812 L 289.976562 115.46875 C 288.757812 115.570312 168.035156 125.863281 133.238281 127.964844 L 130.597656 128.125 C 95.707031 130.25 42.980469 133.460938 40.144531 108.050781 C 39.703125 104.152344 40.972656 100.886719 44.019531 98.070312 C 76.203125 68.242188 288.261719 107.859375 290.398438 108.261719 Z M 290.6875 106.742188 " fill-opacity="1" fill-rule="nonzero"/><path fill="#cdbfb4" d="M 292.96875 114.324219 L 292.929688 112.777344 C 291.679688 112.8125 167.640625 116.117188 132.984375 116.894531 C 84.328125 117.980469 41.636719 112.441406 35.785156 104.289062 C 35.191406 103.457031 35.050781 102.644531 35.359375 101.800781 C 36.683594 98.152344 55.84375 95.113281 105.472656 98.550781 C 144.5625 101.253906 290.691406 111.054688 292.164062 111.152344 L 292.265625 109.609375 C 290.792969 109.515625 144.667969 99.714844 105.578125 97.007812 C 85.011719 95.585938 36.859375 93.148438 33.90625 101.273438 C 33.421875 102.59375 33.636719 103.949219 34.527344 105.1875 C 40.746094 113.855469 83.085938 119.550781 133.015625 118.4375 C 167.675781 117.664062 291.71875 114.355469 292.96875 114.324219 Z M 292.96875 114.324219 " fill-opacity="1" fill-rule="nonzero"/><path fill="#cdbfb4" d="M 292.867188 118.382812 L 292.558594 116.871094 C 290.6875 117.253906 104.65625 154.992188 69.929688 147.996094 C 49.625 143.902344 41.234375 125.203125 40.152344 109.066406 C 38.917969 90.527344 46.894531 67.367188 67.355469 60.300781 C 94.964844 50.765625 216.324219 81.542969 286.207031 100.738281 C 288.535156 101.378906 289.882812 101.75 290.679688 101.90625 L 290.675781 101.921875 L 290.910156 102 L 290.925781 101.953125 C 291.777344 102.089844 291.835938 101.90625 291.953125 101.507812 C 292.175781 100.773438 291.421875 100.539062 291.140625 100.449219 L 291.132812 100.480469 C 290.546875 100.328125 288.847656 99.859375 286.621094 99.25 C 216.5625 80.007812 94.851562 49.167969 66.851562 58.839844 C 45.625 66.171875 37.339844 90.0625 38.613281 109.171875 C 39.730469 125.875 48.46875 145.246094 69.625 149.507812 C 104.65625 156.566406 285.199219 119.945312 292.867188 118.382812 Z M 292.867188 118.382812 " fill-opacity="1" fill-rule="nonzero"/><path fill="#cdbfb4" d="M 289.011719 92.910156 L 289.011719 94.453125 L 488.300781 94.453125 L 488.300781 92.910156 Z M 289.011719 92.910156 " fill-opacity="1" fill-rule="nonzero"/><path fill="#cdbfb4" d="M 289.011719 123.773438 L 289.011719 125.320312 L 488.300781 125.320312 L 488.300781 123.773438 Z M 289.011719 123.773438 " fill-opacity="1" fill-rule="nonzero"/></svg>